<?xml version="1.0" encoding="iso-8859-1"?>
<!-- Generator: Adobe Illustrator 19.0.0, SVG Export Plug-In . SVG Version: 6.00 Build 0)  -->
<svg version="1.1" id="Layer_1" xmlns="http://www.w3.org/2000/svg" xmlns:xlink="http://www.w3.org/1999/xlink" x="0px" y="0px"
	 viewBox="0 0 512 512" style="enable-background:new 0 0 512 512;" xml:space="preserve">
<g>
	<g>
		<path d="M373.49,195.772c-2.537-1.313-5.573-1.206-8.012,0.283c-2.146,1.31-3.55,3.524-3.85,5.984
			c-5.399-2.585-10.887-4.964-16.428-7.133l-0.017-5.938c-0.011-3.473-2.217-6.561-5.5-7.696
			c-21.739-7.518-44.47-12.057-67.563-13.493c-2.266-0.142-4.468,0.659-6.11,2.208c-1.644,1.55-2.572,3.71-2.565,5.97l0.007,2.316
			c-2.763-0.086-5.493-0.127-8.17-0.119c-2.677,0.008-5.406,0.065-8.17,0.168l-0.007-2.317c-0.007-2.258-0.948-4.414-2.601-5.954
			c-1.654-1.539-3.862-2.328-6.123-2.172c-23.083,1.57-45.787,6.243-67.484,13.891c-3.277,1.155-5.465,4.255-5.454,7.729
			l0.017,5.938c-5.527,2.202-11.002,4.613-16.385,7.23c-0.315-2.458-1.731-4.664-3.886-5.96c-2.446-1.475-5.485-1.564-8.013-0.236
			C52.278,241.038-0.282,328.228,0.001,424.017c0.058,19.64,7.761,38.083,21.69,51.931c13.876,13.795,32.278,21.383,51.835,21.383
			h0.223l364.935-1.077c19.64-0.058,38.084-7.761,51.931-21.69c13.848-13.929,21.442-32.417,21.384-52.058
			C511.716,326.716,458.643,239.837,373.49,195.772z M479.028,463.042c-10.771,10.834-25.115,16.825-40.391,16.87L73.702,480.99
			h-0.173c-15.211,0-29.524-5.902-40.316-16.632c-10.834-10.769-16.825-25.114-16.87-40.39
			c-0.253-85.098,44.052-162.951,116.497-206.334l0.31,105.225c0.039,13.491,11.027,24.439,24.51,24.438h0.073
			c6.547-0.02,12.694-2.587,17.31-7.23c4.617-4.644,7.148-10.807,7.128-17.355c-0.014-4.503-3.669-8.145-8.17-8.145
			c-4.537,0.014-8.184,3.683-8.17,8.195c0.007,2.181-0.838,4.235-2.376,5.783c-1.538,1.548-3.587,2.403-5.77,2.41
			c-4.518,0-8.181-3.649-8.193-8.146l-0.301-101.883c5.338-2.825,10.791-5.435,16.318-7.822l0.034,11.613
			c0.013,4.506,3.668,8.147,8.169,8.147c4.537-0.013,8.184-3.682,8.171-8.194l-0.086-29.343
			c15.883-5.165,32.306-8.648,48.992-10.395l0.405,137.637c0.039,13.491,11.028,24.439,24.511,24.438h0.073
			c6.547-0.02,12.694-2.587,17.31-7.23c4.616-4.644,7.147-10.807,7.128-17.354c-0.014-4.505-3.668-8.146-8.17-8.146
			c-4.536,0.014-8.183,3.682-8.17,8.194c0.007,2.182-0.838,4.237-2.376,5.785c-1.538,1.547-3.587,2.403-5.77,2.41
			c-4.518,0-8.182-3.649-8.194-8.146l-0.377-127.844c2.767-0.11,5.498-0.171,8.168-0.18c2.668-0.022,5.402,0.025,8.172,0.122
			l0.28,95.173c0.013,4.505,3.668,8.146,8.17,8.146c4.536-0.014,8.183-3.682,8.17-8.194l-0.308-104.955
			c16.696,1.647,33.138,5.034,49.05,10.105l0.377,127.386c0.02,6.547,2.587,12.694,7.23,17.31c4.625,4.599,10.76,7.129,17.278,7.129
			h0.074c6.547-0.02,12.694-2.587,17.31-7.23c4.616-4.644,7.148-10.805,7.129-17.354c-0.014-4.505-3.668-8.146-8.17-8.146
			c-4.536,0.014-8.183,3.682-8.17,8.194c0.007,2.182-0.838,4.237-2.376,5.785c-1.539,1.547-3.588,2.403-5.771,2.41
			c-2.197,0-4.242-0.843-5.784-2.376c-1.547-1.539-2.403-3.588-2.41-5.771l-0.324-109.654c5.54,2.353,11.009,4.932,16.363,7.725
			l0.205,69.202c0.014,4.505,3.668,8.146,8.17,8.146c4.536-0.014,8.183-3.682,8.17-8.194l-0.214-72.544
			c72.7,42.955,117.462,120.545,117.715,205.645C495.704,437.829,489.798,452.209,479.028,463.042z"/>
	</g>
</g>
<g>
	<g>
		<circle cx="48.999" cy="415.702" r="8.17"/>
	</g>
</g>
<g>
	<g>
		<circle cx="81.779" cy="448.285" r="8.17"/>
	</g>
</g>
<g>
	<g>
		<circle cx="441.171" cy="414.547" r="8.17"/>
	</g>
</g>
<g>
	<g>
		<path d="M282.318,112.712c-0.038-12.895,3.268-18.999,7.096-26.066c4.275-7.89,9.118-16.834,9.068-33.897
			c-0.051-17.063-4.949-25.977-9.271-33.842c-2.172-3.953-7.14-5.4-11.095-3.226c-3.956,2.172-5.4,7.14-3.227,11.095
			c3.871,7.044,7.213,13.128,7.251,26.023c0.038,12.895-3.268,18.999-7.096,26.066c-4.273,7.89-9.117,16.834-9.067,33.897
			c0.051,17.064,4.948,25.978,9.268,33.841c1.487,2.707,4.283,4.238,7.168,4.238c1.33,0,2.679-0.326,3.926-1.011
			c3.954-2.172,5.399-7.14,3.227-11.095C285.697,131.692,282.356,125.609,282.318,112.712z"/>
	</g>
</g>
<g>
	<g>
		<path d="M227.85,112.873c-0.038-12.895,3.268-18.999,7.096-26.066c4.275-7.89,9.118-16.834,9.068-33.897
			c-0.051-17.063-4.949-25.977-9.27-33.842c-2.172-3.954-7.14-5.401-11.095-3.226c-3.955,2.172-5.4,7.14-3.227,11.095
			c3.87,7.044,7.213,13.128,7.251,26.023c0.038,12.895-3.268,18.998-7.096,26.066c-4.274,7.89-9.118,16.834-9.068,33.897
			c0.051,17.063,4.948,25.977,9.268,33.841c1.486,2.707,4.283,4.239,7.168,4.239c1.33,0,2.679-0.325,3.926-1.011
			c3.955-2.172,5.4-7.14,3.228-11.094C231.23,131.853,227.888,125.77,227.85,112.873z"/>
	</g>
</g>
<g>
</g>
<g>
</g>
<g>
</g>
<g>
</g>
<g>
</g>
<g>
</g>
<g>
</g>
<g>
</g>
<g>
</g>
<g>
</g>
<g>
</g>
<g>
</g>
<g>
</g>
<g>
</g>
<g>
</g>
</svg>
