<?xml version="1.0" encoding="iso-8859-1"?>
<!-- Generator: Adobe Illustrator 18.0.0, SVG Export Plug-In . SVG Version: 6.00 Build 0)  -->
<!DOCTYPE svg PUBLIC "-//W3C//DTD SVG 1.1//EN" "http://www.w3.org/Graphics/SVG/1.1/DTD/svg11.dtd">
<svg version="1.1" id="Capa_1" xmlns="http://www.w3.org/2000/svg" xmlns:xlink="http://www.w3.org/1999/xlink" x="0px" y="0px"
	 viewBox="0 0 54.976 54.976" style="enable-background:new 0 0 54.976 54.976;" xml:space="preserve">
<g>
	<path d="M54.59,12.177c-0.43-0.547-1.137-0.764-1.803-0.56l-0.858,0.268l0.411-1.318c0.18-0.577,0.026-1.2-0.4-1.627
		c-0.426-0.428-1.05-0.578-1.628-0.402l-1.319,0.411l0.411-1.319c0.179-0.577,0.025-1.201-0.403-1.628s-1.053-0.582-1.626-0.4
		l-1.319,0.411l0.411-1.319c0.18-0.577,0.026-1.2-0.401-1.627c-0.427-0.428-1.051-0.58-1.627-0.402l-1.319,0.411l0.306-0.979
		c0.2-0.644-0.012-1.328-0.541-1.745c-0.529-0.418-1.246-0.466-1.826-0.121c-2.507,1.483-3.999,2.811-4.436,3.944l-1.801,8.829
		c-3.365-1.038-7.278-0.562-10.969,1.201l-0.002-0.002l-0.183,0.095c-1.085,0.532-2.148,1.176-3.173,1.927
		c-0.078,0.057-0.155,0.116-0.232,0.174c-0.326,0.246-0.648,0.502-0.965,0.77c-0.104,0.087-0.209,0.173-0.311,0.262
		c-0.385,0.336-0.764,0.684-1.133,1.052c-0.395,0.395-0.764,0.802-1.122,1.216c-0.081,0.093-0.159,0.188-0.238,0.282
		c-0.345,0.411-0.674,0.829-0.983,1.256c-0.001,0.001-0.002,0.002-0.002,0.003c-0.852,1.179-1.562,2.41-2.125,3.664l-0.015,0.03
		l0.001,0.001c-1.572,3.516-1.982,7.206-1.03,10.409l-7.716,1.144L4.41,36.542c-1.203,0.463-2.595,1.968-4.137,4.472
		c-0.36,0.585-0.32,1.313,0.1,1.854c0.419,0.54,1.113,0.759,1.769,0.555l0.914-0.285l-0.41,1.316
		c-0.18,0.577-0.026,1.202,0.402,1.629c0.429,0.429,1.053,0.582,1.628,0.401l1.316-0.41l-0.41,1.317
		c-0.18,0.576-0.026,1.2,0.401,1.628c0.428,0.428,1.052,0.578,1.63,0.402l1.316-0.411l-0.41,1.317
		c-0.18,0.577-0.026,1.202,0.402,1.629c0.428,0.428,1.053,0.583,1.628,0.401l1.316-0.41l-0.284,0.913
		c-0.205,0.654,0.013,1.349,0.554,1.769c0.295,0.229,0.645,0.346,0.998,0.346c0.294,0,0.59-0.081,0.856-0.245
		c2.504-1.542,4.009-2.934,4.471-4.137l1.25-8.091c3.127,0.839,6.705,0.4,10.112-1.115l0.01,0.01l0.286-0.14
		c0.626-0.291,1.243-0.621,1.852-0.984c0.037-0.022,0.074-0.043,0.111-0.065c0.48-0.29,0.953-0.597,1.418-0.93
		c0.043-0.031,0.084-0.065,0.127-0.096c0.385-0.281,0.763-0.578,1.135-0.888c0.112-0.093,0.223-0.186,0.333-0.281
		c0.405-0.351,0.805-0.714,1.191-1.099c0.361-0.361,0.702-0.734,1.033-1.112c0.107-0.122,0.208-0.246,0.312-0.37
		c0.229-0.273,0.449-0.549,0.662-0.83c0.099-0.13,0.199-0.26,0.295-0.393c0.284-0.392,0.556-0.787,0.809-1.19
		c0.006-0.01,0.013-0.018,0.018-0.028c0.268-0.428,0.511-0.862,0.743-1.3c0.022-0.042,0.049-0.082,0.071-0.124l0.338-0.65
		l-0.009-0.009c1.703-3.582,2.205-7.384,1.29-10.676l8.824-1.806l0.158-0.046c0.416-0.16,1.681-0.646,3.88-4.325
		C55.067,13.46,55.019,12.723,54.59,12.177z M38.075,31.338c-0.181,0.314-0.374,0.623-0.573,0.928
		c-0.048,0.073-0.094,0.146-0.142,0.218c-0.18,0.267-0.37,0.528-0.564,0.788c-0.07,0.093-0.136,0.187-0.207,0.279
		c-0.193,0.249-0.396,0.491-0.602,0.732c-0.076,0.089-0.147,0.181-0.225,0.269c-0.285,0.323-0.581,0.64-0.889,0.949
		c-0.326,0.326-0.662,0.636-1.004,0.936c-0.093,0.081-0.188,0.157-0.281,0.236c-0.268,0.226-0.54,0.448-0.818,0.658
		c-0.08,0.061-0.161,0.12-0.241,0.179c-0.346,0.254-0.696,0.499-1.055,0.728c-0.002,0.001-0.004,0.002-0.006,0.004
		c-0.404,0.257-0.817,0.499-1.238,0.724l-3.707-3.706l-0.364-0.031c-1.76-0.151-3.415-0.92-4.66-2.166
		c-1.246-1.246-2.015-2.9-2.165-4.659l-0.031-0.364l-3.493-3.492c0.077-0.144,0.159-0.286,0.24-0.428
		c0.11-0.193,0.22-0.386,0.337-0.575c0.115-0.187,0.236-0.372,0.359-0.556c0.125-0.188,0.254-0.374,0.386-0.559
		c0.123-0.172,0.248-0.344,0.378-0.514c0.161-0.209,0.329-0.415,0.498-0.619c0.113-0.136,0.222-0.273,0.338-0.407
		c0.296-0.338,0.602-0.669,0.923-0.991c0.304-0.304,0.616-0.595,0.934-0.876c0.176-0.155,0.358-0.3,0.538-0.448
		c0.142-0.117,0.281-0.237,0.426-0.349c0.217-0.168,0.438-0.326,0.659-0.484c0.114-0.081,0.226-0.166,0.342-0.244
		c0.231-0.157,0.465-0.305,0.7-0.451c0.113-0.07,0.226-0.142,0.34-0.209c0.095-0.056,0.192-0.106,0.287-0.161l3.584,3.585
		l0.364,0.03c1.761,0.15,3.417,0.919,4.663,2.166c1.247,1.246,2.016,2.902,2.165,4.663l0.031,0.364l3.804,3.803
		C38.095,31.303,38.085,31.32,38.075,31.338z M19.26,40.255l-1.164-0.451l-1.539,10.157c-0.297,0.628-1.297,1.535-2.762,2.518
		l0.194-0.624c0.18-0.577,0.026-1.202-0.402-1.629c-0.31-0.31-0.722-0.476-1.144-0.476c-0.162,0-0.325,0.024-0.484,0.074
		l-1.316,0.41l0.41-1.316c0.18-0.577,0.026-1.2-0.401-1.628c-0.427-0.429-1.051-0.58-1.63-0.403l-1.316,0.411l0.41-1.317
		c0.18-0.577,0.026-1.202-0.402-1.629c-0.428-0.428-1.05-0.58-1.628-0.401l-1.316,0.41l0.41-1.316
		c0.18-0.577,0.026-1.202-0.402-1.629c-0.427-0.428-1.052-0.579-1.628-0.401l-0.625,0.195c0.982-1.465,1.89-2.465,2.519-2.763
		l10.074-1.493l-0.504-1.19c-1.144-2.698-0.966-6.035,0.304-9.282l2.463,2.463c0.262,2.089,1.214,4.041,2.705,5.531
		c1.49,1.49,3.442,2.442,5.532,2.705l2.689,2.689C25.168,41.104,21.95,41.298,19.26,40.255z M50.173,16.489l-10.997,2.25
		l0.436,1.107c1.116,2.835,0.851,6.257-0.563,9.555l-2.826-2.825c-0.262-2.09-1.213-4.044-2.705-5.535
		c-1.491-1.492-3.445-2.444-5.535-2.705l-2.601-2.602c3.409-1.45,6.956-1.695,9.793-0.474l1.131,0.486L38.516,4.83
		c0.218-0.458,1.03-1.274,2.691-2.344l-0.214,0.686c-0.179,0.576-0.025,1.2,0.401,1.627c0.427,0.427,1.052,0.581,1.627,0.401
		l1.319-0.411l-0.411,1.319c-0.179,0.577-0.025,1.201,0.402,1.628c0.428,0.427,1.053,0.579,1.627,0.401l1.319-0.411l-0.411,1.318
		c-0.18,0.576-0.027,1.199,0.4,1.627c0.428,0.428,1.051,0.581,1.628,0.402l1.319-0.411l-0.411,1.319
		c-0.179,0.576-0.025,1.2,0.401,1.627c0.427,0.427,1.053,0.578,1.628,0.401l0.686-0.214C51.446,15.46,50.628,16.272,50.173,16.489z"
		/>
	<path d="M22.912,23.869c-2.144,2.145-2.144,5.634,0,7.778c1.072,1.072,2.48,1.608,3.889,1.608c1.409,0,2.817-0.536,3.889-1.608
		c2.144-2.145,2.144-5.634,0-7.778S25.057,21.725,22.912,23.869z M29.276,30.233c-1.365,1.363-3.585,1.363-4.95,0
		c-1.364-1.365-1.364-3.585,0-4.95c0.682-0.682,1.579-1.023,2.475-1.023c0.896,0,1.792,0.342,2.475,1.023
		C30.64,26.648,30.64,28.868,29.276,30.233z"/>
	<path d="M43.087,14.412c-0.514,0.064-0.965,0.08-1.401,0.095c-0.361,0.013-0.716,0.027-1.071,0.069
		c1.09-1.706,1.63-3.862,1.368-5.954c-0.068-0.549-0.572-0.932-1.116-0.868c-0.548,0.068-0.937,0.568-0.868,1.116
		c0.322,2.573-0.953,5.362-2.965,6.488c-0.482,0.271-0.654,0.88-0.384,1.361c0.16,0.285,0.44,0.454,0.741,0.494
		c0.052,0.187,0.141,0.364,0.3,0.499c0.188,0.159,0.417,0.236,0.645,0.236c0.284,0,0.566-0.12,0.764-0.354
		c0.869-1.027,1.392-1.045,2.656-1.089c0.458-0.016,0.976-0.034,1.58-0.109c0.548-0.068,0.937-0.568,0.868-1.116
		S43.627,14.35,43.087,14.412z"/>
	<path d="M16.345,38.489c-0.051-0.19-0.141-0.371-0.302-0.507c-0.421-0.357-1.053-0.305-1.409,0.118
		c-0.868,1.026-1.391,1.045-2.654,1.089c-0.458,0.016-0.978,0.033-1.582,0.109c-0.548,0.068-0.937,0.568-0.868,1.116
		c0.063,0.506,0.494,0.876,0.991,0.876c0.042,0,0.083-0.003,0.126-0.008c0.515-0.064,0.966-0.08,1.402-0.096
		c0.36-0.012,0.715-0.027,1.069-0.069c-1.089,1.706-1.63,3.863-1.368,5.954c0.063,0.506,0.494,0.876,0.991,0.876
		c0.042,0,0.083-0.003,0.125-0.008c0.548-0.068,0.937-0.568,0.868-1.116c-0.322-2.574,0.953-5.363,2.965-6.489
		c0.482-0.271,0.654-0.88,0.384-1.361C16.924,38.69,16.645,38.531,16.345,38.489z"/>
</g>
<g>
</g>
<g>
</g>
<g>
</g>
<g>
</g>
<g>
</g>
<g>
</g>
<g>
</g>
<g>
</g>
<g>
</g>
<g>
</g>
<g>
</g>
<g>
</g>
<g>
</g>
<g>
</g>
<g>
</g>
</svg>
