<?xml version="1.0" encoding="iso-8859-1"?>
<!-- Generator: Adobe Illustrator 18.0.0, SVG Export Plug-In . SVG Version: 6.00 Build 0)  -->
<!DOCTYPE svg PUBLIC "-//W3C//DTD SVG 1.1//EN" "http://www.w3.org/Graphics/SVG/1.1/DTD/svg11.dtd">
<svg version="1.1" id="Capa_1" xmlns="http://www.w3.org/2000/svg" xmlns:xlink="http://www.w3.org/1999/xlink" x="0px" y="0px"
	 viewBox="0 0 47.518 47.518" style="enable-background:new 0 0 47.518 47.518;" xml:space="preserve">
<g>
	<path d="M9.071,32.26c-1.171-1.168-3.073-1.168-4.242,0c-0.566,0.566-0.879,1.32-0.879,2.122c0,0.801,0.313,1.555,0.879,2.121
		c0.585,0.585,1.353,0.877,2.121,0.877s1.536-0.292,2.121-0.877c0.566-0.566,0.879-1.32,0.879-2.121
		C9.95,33.58,9.638,32.827,9.071,32.26L9.071,32.26z M7.657,35.089c-0.391,0.391-1.023,0.391-1.414,0
		c-0.188-0.189-0.293-0.44-0.293-0.707c0-0.268,0.104-0.518,0.293-0.707c0.195-0.195,0.451-0.292,0.707-0.292
		s0.512,0.097,0.707,0.292v0.001c0.189,0.188,0.293,0.438,0.293,0.706C7.95,34.648,7.846,34.899,7.657,35.089z"/>
	<path d="M47.292,13.687c-0.151-0.735-0.641-1.353-1.309-1.648c-0.451-0.201-0.619-0.661-0.844-1.394
		c-0.229-0.752-0.646-2.142-2.22-2.008c-0.533,0.053-1.001-0.099-1.321-0.418c-0.319-0.319-0.468-0.789-0.418-1.321
		c0.105-1.136-0.248-2.173-0.996-2.922c-0.706-0.705-1.671-1.046-2.782-1.008c-0.013-0.063-0.026-0.133-0.037-0.192
		c-0.143-0.756-0.438-2.314-2.612-2.607c-0.384-0.122-1.437-0.376-2.311,0.16c-0.417,0.257-0.936,0.782-1.045,1.927l-0.023,6.263
		h-10.21c-1.59,0-3.132,0.193-4.622,0.53c-0.534-2.012-1.418-3.916-2.68-5.658l-0.496-0.685L12.608,3.08
		c-0.19,0.094-4.669,2.353-5.904,6.238c-0.5,1.571-0.405,3.168,0.279,4.76c-4.171,3.838-6.805,9.323-6.805,15.424v18.015h17.876
		c5.643,0,10.947-2.197,14.937-6.188c0.484-0.484,0.94-0.99,1.371-1.511c0.44,0.036,0.896,0.062,1.386,0.062
		c2.821,0,6.408-0.692,9.973-3.275l0.685-0.496l-0.376-0.758c-0.115-0.233-2.686-5.299-7.065-6.105
		c0.126-0.94,0.214-1.889,0.213-2.853v-10.15l6.317,0.059l0.08-0.013c0.455-0.07,0.863-0.287,1.183-0.629l0.003-0.003
		C47.241,15.139,47.439,14.402,47.292,13.687z M8.604,12.705c-0.289-0.939-0.286-1.855,0.005-2.773
		c0.708-2.237,2.954-3.888,4.141-4.629c0.859,1.338,1.491,2.768,1.889,4.267c-0.904,0.297-1.774,0.663-2.62,1.075
		c-0.205,0.099-0.414,0.191-0.615,0.297c-0.28,0.148-0.549,0.311-0.822,0.47c-0.279,0.163-0.556,0.327-0.827,0.503
		c-0.246,0.16-0.485,0.327-0.723,0.497C8.89,12.512,8.742,12.601,8.604,12.705z M38.613,31.205c2.521,0.471,4.392,3.002,5.193,4.287
		c-2.886,1.858-5.741,2.382-8.029,2.387c1.301-1.999,2.233-4.197,2.79-6.511C38.581,31.313,38.6,31.26,38.613,31.205z M45.295,14.3
		l-8.117-0.074v12.168c0,1.157-0.116,2.295-0.315,3.41l-0.026,0.141c-0.057,0.302-0.126,0.603-0.198,0.902
		c-0.031,0.129-0.063,0.257-0.096,0.385c-0.657,2.502-1.826,4.876-3.432,6.928l-0.387,0.494c-0.364,0.434-0.741,0.858-1.146,1.263
		c-3.612,3.612-8.415,5.602-13.523,5.602H2.178V29.503c0-5.809,2.629-11.01,6.752-14.496c1.563-1.32,3.298-2.366,5.182-3.117
		c0.015-0.006,0.03-0.01,0.044-0.016c0.621-0.246,1.258-0.46,1.91-0.641c1.625-0.454,3.33-0.716,5.099-0.716h12.202l0.026-8.159
		c0.021-0.214,0.074-0.312,0.098-0.326c0.099-0.062,0.445-0.037,0.677,0.048l0.25,0.062c0.81,0.09,0.854,0.32,0.982,1.006
		c0.104,0.541,0.378,1.975,2.049,1.824c0.531-0.05,1.001,0.099,1.322,0.418c0.319,0.32,0.468,0.79,0.418,1.322
		c-0.105,1.136,0.248,2.173,0.996,2.921c0.726,0.725,1.733,1.074,2.838,1.003c0.067,0.145,0.147,0.406,0.205,0.593
		c0.249,0.816,0.626,2.05,1.943,2.637c0.095,0.042,0.146,0.144,0.162,0.225c0.009,0.041,0.021,0.143-0.039,0.208L45.295,14.3z
		 M45.431,14.453v-0.028l0.597,0.553L45.431,14.453z"/>
	<path d="M6.95,24.896v2c7.72,0,14,6.28,14,14h2C22.95,32.074,15.772,24.896,6.95,24.896z"/>
	<path d="M10.205,21.642v2c7.72,0,14,6.28,14,14h2C26.205,28.819,19.027,21.642,10.205,21.642z"/>
	<path d="M13.314,18.532v2c7.72,0,14,6.28,14,14h2C29.314,25.71,22.137,18.532,13.314,18.532z"/>
	<path d="M16.569,15.277v2c7.72,0,14,6.28,14,14h2C32.569,22.455,25.392,15.277,16.569,15.277z"/>
</g>
<g>
</g>
<g>
</g>
<g>
</g>
<g>
</g>
<g>
</g>
<g>
</g>
<g>
</g>
<g>
</g>
<g>
</g>
<g>
</g>
<g>
</g>
<g>
</g>
<g>
</g>
<g>
</g>
<g>
</g>
</svg>
