<?xml version="1.0" encoding="iso-8859-1"?>
<!-- Generator: Adobe Illustrator 19.0.0, SVG Export Plug-In . SVG Version: 6.00 Build 0)  -->
<svg version="1.1" id="Layer_1" xmlns="http://www.w3.org/2000/svg" xmlns:xlink="http://www.w3.org/1999/xlink" x="0px" y="0px"
	 viewBox="0 0 511.999 511.999" style="enable-background:new 0 0 511.999 511.999;" xml:space="preserve">
<g>
	<g>
		<path d="M511.527,16.366c-0.402-8.604-7.288-15.483-15.892-15.897c-10.388-0.484-256.76-10.893-367.033,99.391
			c-37.809,37.809-58.639,88.155-58.639,141.764c0,47.987,16.702,93.356,47.321,129.465L4.894,483.476
			c-6.526,6.52-6.526,17.104,0,23.626c3.264,3.263,7.538,4.895,11.812,4.895s8.55-1.632,11.812-4.895l112.392-112.391
			c37.231,31.535,83.341,47.311,129.455,47.311c51.352,0,102.693-19.547,141.775-58.629
			C522.426,273.108,512.027,26.797,511.527,16.366z M412.141,234.706H300.919l-72.912,72.911h77.808
			c9.224,0,16.708,7.478,16.708,16.708s-7.484,16.708-16.708,16.708H194.592l-29.951,29.95c-4.275-3.499-8.426-7.227-12.414-11.214
			c-3.97-3.971-7.711-8.111-11.225-12.399l29.967-29.967V206.179c0-9.229,7.484-16.708,16.708-16.708s16.708,7.478,16.708,16.708
			v77.808l72.911-72.91V99.854c0-9.229,7.484-16.708,16.708-16.708s16.708,7.478,16.708,16.708v77.809l77.806-77.804
			c6.526-6.526,17.1-6.526,23.626,0c6.526,6.52,6.526,17.104,0,23.626l-77.807,77.806h77.807c9.224,0,16.708,7.478,16.708,16.708
			S421.365,234.706,412.141,234.706z"/>
	</g>
</g>
<g>
</g>
<g>
</g>
<g>
</g>
<g>
</g>
<g>
</g>
<g>
</g>
<g>
</g>
<g>
</g>
<g>
</g>
<g>
</g>
<g>
</g>
<g>
</g>
<g>
</g>
<g>
</g>
<g>
</g>
</svg>
