<?xml version="1.0" encoding="iso-8859-1"?>
<!-- Generator: Adobe Illustrator 16.0.0, SVG Export Plug-In . SVG Version: 6.00 Build 0)  -->
<!DOCTYPE svg PUBLIC "-//W3C//DTD SVG 1.1//EN" "http://www.w3.org/Graphics/SVG/1.1/DTD/svg11.dtd">
<svg version="1.1" id="Capa_1" xmlns="http://www.w3.org/2000/svg" xmlns:xlink="http://www.w3.org/1999/xlink" x="0px" y="0px"
	 width="48.278px" height="48.279px" viewBox="0 0 48.278 48.279" style="enable-background:new 0 0 48.278 48.279;"
	 xml:space="preserve">
<g>
	<g id="Toilet_Paper_Roll">
		<path d="M15.525,19.348C6.819,19.348,0,15.719,0,11.085c0-4.634,6.819-8.263,15.525-8.263c8.707,0,15.526,3.629,15.526,8.263
			C31.051,15.719,24.232,19.348,15.525,19.348z M15.525,4.822C8.194,4.822,2,7.69,2,11.085s6.194,6.263,13.525,6.263
			c7.332,0,13.526-2.868,13.526-6.263S22.857,4.822,15.525,4.822z"/>
		<path d="M15.525,40.156C6.819,40.156,0,36.527,0,31.892V11.085c0-0.552,0.448-1,1-1s1,0.448,1,1v20.807
			c0,3.396,6.194,6.264,13.525,6.264c7.332,0,13.526-2.869,13.526-6.264V11.085c0-0.552,0.448-1,1-1c0.553,0,1,0.448,1,1v20.807
			C31.052,36.527,24.232,40.156,15.525,40.156z"/>
		<path d="M15.821,12.915c-2.583,0-5.363-0.757-5.363-2.418c0-1.662,2.78-2.419,5.363-2.419s5.363,0.757,5.363,2.419
			C21.185,12.158,18.404,12.915,15.821,12.915z M15.821,9.578c-2.429,0-3.752,0.684-3.869,0.957c0.117,0.196,1.441,0.88,3.869,0.88
			c2.428,0,3.751-0.684,3.869-0.956C19.573,10.263,18.25,9.578,15.821,9.578z"/>
		<path d="M47.277,45.457c-0.018,0-0.033,0-0.051-0.001c-0.384-0.019-9.468-0.582-14.336-10.164
			c-0.738-1.501-1.859-2.995-2.315-3.088c-0.552-0.028-0.97-0.5-0.938-1.051c0.029-0.551,0.512-0.97,1.057-0.945
			c1.793,0.095,3.386,2.962,3.986,4.191c3.276,6.446,8.659,8.315,11.221,8.85c-1.733-6.782-0.851-12.302-0.252-16.04
			c0.218-1.359,0.483-3.019,0.326-3.604c-0.16,0.014-0.391,0.053-0.574,0.084c-1.621,0.277-4.639,0.787-7.112-4.103
			c-3.192-6.31-9.945-10.527-10.013-10.569c-0.471-0.29-0.616-0.906-0.326-1.375c0.289-0.47,0.904-0.617,1.375-0.327
			c0.296,0.182,7.294,4.545,10.748,11.368c1.809,3.575,3.576,3.276,4.994,3.034c0.808-0.136,1.811-0.306,2.442,0.538
			c0.791,1.053,0.522,2.731,0.115,5.271c-0.612,3.828-1.539,9.612,0.61,16.64c0.096,0.312,0.033,0.65-0.168,0.907
			C47.876,45.316,47.584,45.457,47.277,45.457z"/>
		<g>
			<path d="M18.485,21.28c-0.276,0-0.5-0.224-0.5-0.5v-0.488c0-0.276,0.224-0.5,0.5-0.5c0.276,0,0.5,0.224,0.5,0.5v0.488
				C18.985,21.056,18.762,21.28,18.485,21.28z"/>
			<path d="M18.485,35.058c-0.276,0-0.5-0.223-0.5-0.5V33.64c0-0.275,0.224-0.5,0.5-0.5c0.276,0,0.5,0.225,0.5,0.5v0.918
				C18.985,34.835,18.762,35.058,18.485,35.058z M18.485,32.302c-0.276,0-0.5-0.224-0.5-0.5v-0.918c0-0.275,0.224-0.5,0.5-0.5
				c0.276,0,0.5,0.225,0.5,0.5v0.918C18.985,32.079,18.762,32.302,18.485,32.302z M18.485,29.548c-0.276,0-0.5-0.225-0.5-0.5v-0.92
				c0-0.275,0.224-0.5,0.5-0.5c0.276,0,0.5,0.225,0.5,0.5v0.92C18.985,29.324,18.762,29.548,18.485,29.548z M18.485,26.792
				c-0.276,0-0.5-0.224-0.5-0.5v-0.918c0-0.276,0.224-0.5,0.5-0.5c0.276,0,0.5,0.224,0.5,0.5v0.918
				C18.985,26.568,18.762,26.792,18.485,26.792z M18.485,24.036c-0.276,0-0.5-0.224-0.5-0.5v-0.918c0-0.276,0.224-0.5,0.5-0.5
				c0.276,0,0.5,0.224,0.5,0.5v0.918C18.985,23.812,18.762,24.036,18.485,24.036z"/>
			<path d="M18.485,37.384c-0.276,0-0.5-0.225-0.5-0.5v-0.488c0-0.276,0.224-0.5,0.5-0.5c0.276,0,0.5,0.224,0.5,0.5v0.488
				C18.985,37.16,18.762,37.384,18.485,37.384z"/>
		</g>
		<g>
			<path d="M4.578,18.84c-0.276,0-0.5-0.224-0.5-0.5v-0.488c0-0.276,0.224-0.5,0.5-0.5c0.276,0,0.5,0.224,0.5,0.5v0.488
				C5.078,18.616,4.854,18.84,4.578,18.84z"/>
			<path d="M4.578,32.619c-0.276,0-0.5-0.224-0.5-0.5v-0.918c0-0.275,0.224-0.5,0.5-0.5c0.276,0,0.5,0.225,0.5,0.5v0.918
				C5.078,32.395,4.854,32.619,4.578,32.619z M4.578,29.863c-0.276,0-0.5-0.225-0.5-0.5v-0.918c0-0.275,0.224-0.5,0.5-0.5
				c0.276,0,0.5,0.225,0.5,0.5v0.918C5.078,29.638,4.854,29.863,4.578,29.863z M4.578,27.108c-0.276,0-0.5-0.224-0.5-0.5v-0.919
				c0-0.276,0.224-0.5,0.5-0.5c0.276,0,0.5,0.224,0.5,0.5v0.919C5.078,26.884,4.854,27.108,4.578,27.108z M4.578,24.352
				c-0.276,0-0.5-0.224-0.5-0.5v-0.918c0-0.276,0.224-0.5,0.5-0.5c0.276,0,0.5,0.224,0.5,0.5v0.918
				C5.078,24.128,4.854,24.352,4.578,24.352z M4.578,21.596c-0.276,0-0.5-0.224-0.5-0.5v-0.918c0-0.276,0.224-0.5,0.5-0.5
				c0.276,0,0.5,0.224,0.5,0.5v0.918C5.078,21.372,4.854,21.596,4.578,21.596z"/>
			<path d="M4.578,34.944c-0.276,0-0.5-0.224-0.5-0.5v-0.488c0-0.276,0.224-0.5,0.5-0.5c0.276,0,0.5,0.224,0.5,0.5v0.488
				C5.078,34.72,4.854,34.944,4.578,34.944z"/>
		</g>
		<g>
			<path d="M35.975,18.189c-0.276,0-0.5-0.224-0.5-0.5v-0.488c0-0.276,0.224-0.5,0.5-0.5c0.275,0,0.5,0.224,0.5,0.5v0.488
				C36.475,17.965,36.25,18.189,35.975,18.189z"/>
			<path d="M35.975,31.966c-0.276,0-0.5-0.224-0.5-0.5v-0.918c0-0.275,0.224-0.5,0.5-0.5c0.275,0,0.5,0.225,0.5,0.5v0.918
				C36.475,31.743,36.25,31.966,35.975,31.966z M35.975,29.21c-0.276,0-0.5-0.224-0.5-0.5v-0.918c0-0.275,0.224-0.5,0.5-0.5
				c0.275,0,0.5,0.225,0.5,0.5v0.918C36.475,28.988,36.25,29.21,35.975,29.21z M35.975,26.455c-0.276,0-0.5-0.224-0.5-0.5v-0.918
				c0-0.276,0.224-0.5,0.5-0.5c0.275,0,0.5,0.224,0.5,0.5v0.918C36.475,26.232,36.25,26.455,35.975,26.455z M35.975,23.7
				c-0.276,0-0.5-0.224-0.5-0.5v-0.918c0-0.276,0.224-0.5,0.5-0.5c0.275,0,0.5,0.224,0.5,0.5V23.2
				C36.475,23.476,36.25,23.7,35.975,23.7z M35.975,20.945c-0.276,0-0.5-0.224-0.5-0.5v-0.918c0-0.276,0.224-0.5,0.5-0.5
				c0.275,0,0.5,0.224,0.5,0.5v0.918C36.475,20.721,36.25,20.945,35.975,20.945z"/>
			<path d="M35.975,34.291c-0.276,0-0.5-0.224-0.5-0.5v-0.488c0-0.275,0.224-0.5,0.5-0.5c0.275,0,0.5,0.225,0.5,0.5v0.488
				C36.475,34.068,36.25,34.291,35.975,34.291z"/>
		</g>
	</g>
	<g>
	</g>
	<g>
	</g>
	<g>
	</g>
	<g>
	</g>
	<g>
	</g>
	<g>
	</g>
	<g>
	</g>
	<g>
	</g>
	<g>
	</g>
	<g>
	</g>
	<g>
	</g>
	<g>
	</g>
	<g>
	</g>
	<g>
	</g>
	<g>
	</g>
</g>
<g>
</g>
<g>
</g>
<g>
</g>
<g>
</g>
<g>
</g>
<g>
</g>
<g>
</g>
<g>
</g>
<g>
</g>
<g>
</g>
<g>
</g>
<g>
</g>
<g>
</g>
<g>
</g>
<g>
</g>
</svg>
