<?xml version="1.0" encoding="iso-8859-1"?>
<!-- Generator: Adobe Illustrator 19.0.0, SVG Export Plug-In . SVG Version: 6.00 Build 0)  -->
<svg version="1.1" id="Capa_1" xmlns="http://www.w3.org/2000/svg" xmlns:xlink="http://www.w3.org/1999/xlink" x="0px" y="0px"
	 viewBox="0 0 57.051 57.051" style="enable-background:new 0 0 57.051 57.051;" xml:space="preserve">
<g>
	<path d="M42.773,16.57c-1.527-2.446-3.905-5.331-6.696-8.122s-5.676-5.169-8.122-6.696c-2.942-1.837-4.879-2.225-5.917-1.185
		c-1.091,1.091-0.603,3.18,1.492,6.387l0.247,0.379l2.934,0.419L25.38,9.527l0.492,0.605c1.076,1.326,2.283,2.654,3.562,3.962
		c-0.47-0.019-0.941-0.042-1.409-0.042c-8.837,0-15.5,3.01-15.5,7V26v6.291v11.397v1.363v5c0,3.99,6.663,7,15.5,7s15.5-3.01,15.5-7
		v-5v-19.05v-3.207c0.156-0.082,0.305-0.178,0.434-0.307C44.998,21.448,44.61,19.512,42.773,16.57z M28.024,16.053
		c1.2,0,2.412,0.066,3.608,0.198c0.071,0.065,0.146,0.131,0.218,0.197c0.175,0.16,0.353,0.32,0.533,0.482
		c0.163,0.146,0.324,0.291,0.49,0.437c0.287,0.251,0.579,0.501,0.875,0.75c0.136,0.114,0.272,0.224,0.409,0.337
		c0.233,0.192,0.467,0.381,0.704,0.568c0.108,0.086,0.216,0.171,0.325,0.256c0.719,0.56,1.444,1.089,2.159,1.566
		c0.066,0.044,0.131,0.086,0.198,0.129c0.28,0.183,0.556,0.356,0.83,0.521c0.103,0.062,0.206,0.124,0.308,0.183
		c0.235,0.135,0.465,0.259,0.693,0.377c0.261,0.136,0.513,0.254,0.762,0.365c0.11,0.048,0.222,0.102,0.329,0.145
		c0.072,0.029,0.149,0.07,0.219,0.096c-1.437,1.419-4.667,2.708-8.982,3.191c-0.185,0.02-0.368,0.041-0.557,0.059
		c-0.186,0.017-0.375,0.032-0.565,0.046c-0.257,0.019-0.518,0.036-0.782,0.049c-0.153,0.008-0.306,0.017-0.462,0.022
		c-0.43,0.016-0.866,0.027-1.313,0.027c-7.956,0-13.5-2.635-13.5-5S20.068,16.053,28.024,16.053z M14.524,35.18
		c0.738,0.25,2.832,0.809,2.832,0.809c6.657,1.561,7.513,1.762,8.176,7.134c0.078,0.638,0.024,1.499-0.677,1.987
		c-0.548,0.382-2.841,1.364-9.345-1.998c-0.342-0.177-0.669-0.359-0.986-0.546V35.18z M41.524,50.053c0,2.365-5.544,5-13.5,5
		s-13.5-2.635-13.5-5v-1.224c2.712,2.443,7.868,4.172,13.5,4.172s10.788-1.73,13.5-4.172V50.053z M41.524,45.053
		c0,2.396-5.669,5.948-13.5,5.948s-13.5-3.553-13.5-5.948v-0.2c0.022,0.012,0.046,0.026,0.068,0.037
		c3.864,1.996,6.566,2.66,8.452,2.66c1.374-0.001,2.314-0.353,2.953-0.798c1.186-0.825,1.726-2.201,1.519-3.873
		c-0.823-6.68-3.133-7.269-9.77-8.826c0,0-2.374-0.685-3.222-0.995v-3.512c2.615,2.099,7.567,3.455,13.5,3.455
		s10.885-1.356,13.5-3.455V45.053z M41.524,26.001c0,2.365-5.544,5-13.5,5s-13.5-2.635-13.5-5v-1.403
		c0.056,0.045,0.127,0.084,0.185,0.128c0.228,0.174,0.472,0.342,0.732,0.505c0.106,0.066,0.21,0.132,0.321,0.197
		c0.323,0.187,0.664,0.367,1.028,0.537c0.048,0.022,0.09,0.047,0.139,0.07c0.415,0.189,0.86,0.363,1.324,0.529
		c0.13,0.047,0.267,0.089,0.401,0.134c0.358,0.119,0.728,0.231,1.111,0.336c0.153,0.042,0.303,0.084,0.46,0.123
		c0.489,0.123,0.992,0.237,1.516,0.336c0.038,0.007,0.074,0.017,0.113,0.024c0.561,0.104,1.146,0.189,1.742,0.264
		c0.172,0.022,0.348,0.039,0.523,0.058c0.454,0.049,0.916,0.09,1.386,0.122c0.187,0.013,0.372,0.027,0.561,0.036
		c0.641,0.033,1.291,0.056,1.958,0.056c0.64,0,1.266-0.022,1.885-0.054c0.191-0.01,0.38-0.02,0.568-0.033
		c0.494-0.034,0.981-0.076,1.458-0.129c0.325-0.035,0.639-0.079,0.954-0.124c0.261-0.037,0.521-0.075,0.775-0.118
		c0.333-0.055,0.659-0.114,0.979-0.179c0.051-0.01,0.1-0.023,0.151-0.033c0.739-0.155,1.438-0.335,2.102-0.537
		c0.031-0.009,0.062-0.019,0.092-0.028c1.046-0.325,1.986-0.705,2.811-1.137c0.033-0.017,0.066-0.034,0.098-0.051
		c0.603-0.322,1.164-0.661,1.627-1.033C41.524,24.597,41.524,26.001,41.524,26.001z M42.528,21.047l-0.158-0.009
		c-1.392-0.081-4.993-2.142-9.613-6.473l-0.239-0.225h-0.004c-0.387-0.368-0.78-0.748-1.181-1.149
		c-1.225-1.225-2.37-2.473-3.414-3.718l2.418-3.224l-5.376-0.768c-1.449-2.305-1.502-3.248-1.483-3.487
		c1.063-0.183,5.473,2.157,11.185,7.867C40.377,15.578,42.732,20.013,42.528,21.047z"/>
	<path d="M23.028,17.131l0.992,1.736l-6.999,4l-0.992-1.736L23.028,17.131z M30.077,18.832l-9.001,6l-1.109-1.664l9.001-6
		L30.077,18.832z M34.124,19.801l-8,6l-1.199-1.599l8-6L34.124,19.801z M37.149,21.782l-5,4l-1.25-1.563l5-4L37.149,21.782z"/>
</g>
<g>
</g>
<g>
</g>
<g>
</g>
<g>
</g>
<g>
</g>
<g>
</g>
<g>
</g>
<g>
</g>
<g>
</g>
<g>
</g>
<g>
</g>
<g>
</g>
<g>
</g>
<g>
</g>
<g>
</g>
</svg>
