<?xml version="1.0" encoding="iso-8859-1"?>
<!-- Generator: Adobe Illustrator 19.0.0, SVG Export Plug-In . SVG Version: 6.00 Build 0)  -->
<svg version="1.1" id="Layer_1" xmlns="http://www.w3.org/2000/svg" xmlns:xlink="http://www.w3.org/1999/xlink" x="0px" y="0px"
	 viewBox="0 0 512.001 512.001" style="enable-background:new 0 0 512.001 512.001;" xml:space="preserve">
<g>
	<g>
		<path d="M511.351,16.323c-0.41-8.603-7.293-15.485-15.896-15.896c-2.597-0.121-64.445-2.909-140.418,7.521
			C251.383,22.174,175.128,53.086,128.392,99.823c-75.439,75.438-76.902,193.916-11.321,271.253L5.118,483.476
			c-6.525,6.524-6.525,17.105,0,23.63c3.263,3.263,7.539,4.895,11.814,4.895c4.275,0,8.553-1.632,11.814-4.895l111.954-112.4
			c77.358,65.598,195.835,64.099,271.253-11.322c46.738-46.736,77.648-122.991,91.875-226.645
			C514.257,80.765,511.473,18.918,511.351,16.323z M388.325,359.754c-62.198,62.198-159.533,63.997-223.904,11.232l29.967-30.636
			H305.62c9.228,0,16.709-6.813,16.709-16.041c0-9.228-7.481-17.266-16.709-17.266h-77.813l72.918-72.473h111.23
			c9.228,0,16.709-7.37,16.709-16.598c0-9.228-7.481-16.709-16.709-16.709h-77.812l77.812-77.812c6.525-6.524,6.525-17.105,0-23.63
			c-6.524-6.524-17.105-6.524-23.63,0l-77.589,77.812V99.823c0-9.228-7.704-16.709-16.932-16.709s-16.152,7.481-16.152,16.709
			v111.23l-73.587,72.918v-77.813c0-9.228-7.37-16.709-16.598-16.709c-9.228,0-16.709,7.481-16.709,16.709V317.39l-29.967,29.967
			c-52.795-64.407-50.933-161.741,11.232-223.904c72.39-72.389,223.505-90.569,326.264-89.963
			C478.647,88.51,473.301,274.779,388.325,359.754z"/>
	</g>
</g>
<g>
</g>
<g>
</g>
<g>
</g>
<g>
</g>
<g>
</g>
<g>
</g>
<g>
</g>
<g>
</g>
<g>
</g>
<g>
</g>
<g>
</g>
<g>
</g>
<g>
</g>
<g>
</g>
<g>
</g>
</svg>
