<?xml version="1.0" encoding="iso-8859-1"?>
<!-- Generator: Adobe Illustrator 19.0.0, SVG Export Plug-In . SVG Version: 6.00 Build 0)  -->
<svg version="1.1" id="Capa_1" xmlns="http://www.w3.org/2000/svg" xmlns:xlink="http://www.w3.org/1999/xlink" x="0px" y="0px"
	 viewBox="0 0 512 512" style="enable-background:new 0 0 512 512;" xml:space="preserve">
<g>
	<g>
		<path d="M341.982,98.45c-9.935-9.917-22.918-15.66-36.834-16.364c4.896-2.331,8.295-7.313,8.295-13.085V14.5
			c0-7.995-6.505-14.5-14.5-14.5h-86c-7.995,0-14.5,6.505-14.5,14.5V69c0,5.779,3.407,10.765,8.31,13.093
			c-13.877,0.726-26.825,6.464-36.736,16.355c-10.651,10.631-16.518,24.772-16.518,39.821V156c0,3.414,0.982,6.603,2.68,9.298
			c-1.69,2.482-2.68,5.479-2.68,8.702v12c0,3.715,1.164,7.163,3.146,10c-1.981,2.837-3.146,6.285-3.146,10v10
			c0,3.715,1.164,7.163,3.146,10c-1.981,2.837-3.146,6.285-3.146,10v10c0,3.715,1.164,7.163,3.146,10
			c-1.981,2.837-3.146,6.285-3.146,10v10c0,3.715,1.164,7.163,3.146,10c-1.981,2.837-3.146,6.285-3.146,10v10
			c0,3.715,1.164,7.163,3.146,10c-1.981,2.837-3.146,6.285-3.146,10v12c0,3.224,0.989,6.22,2.68,8.702
			c-1.697,2.695-2.68,5.884-2.68,9.298v118.5c0,20.678,16.822,37.5,37.5,37.5h130c20.678,0,37.5-16.822,37.5-37.5V356
			c0-3.414-0.982-6.603-2.68-9.298c1.69-2.482,2.68-5.479,2.68-8.702v-12c0-3.715-1.164-7.163-3.146-10
			c1.981-2.837,3.146-6.285,3.146-10v-10c0-3.715-1.164-7.163-3.146-10c1.981-2.837,3.146-6.285,3.146-10v-10
			c0-3.715-1.164-7.163-3.146-10c1.981-2.837,3.146-6.285,3.146-10v-10c0-3.715-1.164-7.163-3.146-10
			c1.981-2.837,3.146-6.285,3.146-10v-10c0-3.715-1.164-7.163-3.146-10c1.981-2.837,3.146-6.285,3.146-10v-12
			c0-3.224-0.989-6.22-2.68-8.702c1.697-2.695,2.68-5.884,2.68-9.298v-17.73h0.001C358.5,123.222,352.635,109.08,341.982,98.45z
			 M213.443,15h85v53.5h-85V15z M343.5,186c0,1.379-1.121,2.5-2.5,2.5H226c-4.143,0-7.5,3.357-7.5,7.5s3.357,7.5,7.5,7.5h115
			c1.379,0,2.5,1.121,2.5,2.5v10c0,1.379-1.121,2.5-2.5,2.5H226c-4.143,0-7.5,3.357-7.5,7.5s3.357,7.5,7.5,7.5h115
			c1.379,0,2.5,1.121,2.5,2.5v10c0,1.379-1.121,2.5-2.5,2.5H226c-4.143,0-7.5,3.357-7.5,7.5s3.357,7.5,7.5,7.5h115
			c1.379,0,2.5,1.121,2.5,2.5v10c0,1.379-1.121,2.5-2.5,2.5H226c-4.143,0-7.5,3.357-7.5,7.5s3.357,7.5,7.5,7.5h115
			c1.379,0,2.5,1.121,2.5,2.5v10c0,1.379-1.121,2.5-2.5,2.5H226c-4.143,0-7.5,3.357-7.5,7.5s3.357,7.5,7.5,7.5h115
			c1.379,0,2.5,1.121,2.5,2.5v12c0,0.275-0.225,0.5-0.5,0.5h-1.557H341h-5c-4.143,0-7.5,3.357-7.5,7.5s3.357,7.5,7.5,7.5h5
			c1.379,0,2.5,1.121,2.5,2.5v118.5c0,12.406-10.094,22.5-22.5,22.5H191c-12.406,0-22.5-10.094-22.5-22.5v-96.631H321
			c4.143,0,7.5-3.357,7.5-7.5s-3.357-7.5-7.5-7.5H168.5V356c0-1.379,1.121-2.5,2.5-2.5h5.443c4.143,0,7.5-3.357,7.5-7.5
			s-3.357-7.5-7.5-7.5H171h-2c-0.275,0-0.5-0.225-0.5-0.5v-12c0-1.379,1.121-2.5,2.5-2.5h25.443c4.143,0,7.5-3.357,7.5-7.5
			s-3.357-7.5-7.5-7.5H171c-1.379,0-2.5-1.121-2.5-2.5v-10c0-1.379,1.121-2.5,2.5-2.5h25.443c4.143,0,7.5-3.357,7.5-7.5
			s-3.357-7.5-7.5-7.5H171c-1.379,0-2.5-1.121-2.5-2.5v-10c0-1.379,1.121-2.5,2.5-2.5h25.443c4.143,0,7.5-3.357,7.5-7.5
			s-3.357-7.5-7.5-7.5H171c-1.379,0-2.5-1.121-2.5-2.5v-10c0-1.379,1.121-2.5,2.5-2.5h25.443c4.143,0,7.5-3.357,7.5-7.5
			s-3.357-7.5-7.5-7.5H171c-1.379,0-2.5-1.121-2.5-2.5v-10c0-1.379,1.121-2.5,2.5-2.5h25.443c4.143,0,7.5-3.357,7.5-7.5
			s-3.357-7.5-7.5-7.5H171c-1.379,0-2.5-1.121-2.5-2.5v-12c0-0.275,0.225-0.5,0.5-0.5h2h25.443c4.143,0,7.5-3.357,7.5-7.5
			s-3.357-7.5-7.5-7.5H171c-1.379,0-2.5-1.121-2.5-2.5v-17.73c0-11.036,4.302-21.408,12.113-29.204
			c7.792-7.776,18.14-12.056,29.146-12.056c0.04,0,0.079,0,0.12,0c4.597,0,8.931-1.799,12.206-5.068
			c2.362-2.356,3.955-5.271,4.694-8.441h58.441c0.74,3.171,2.332,6.085,4.694,8.441c3.276,3.27,7.609,5.068,12.205,5.068
			c0.042,0.001,0.08,0.001,0.121,0c11.006,0,21.354,4.28,29.146,12.056c7.812,7.797,12.113,18.168,12.113,29.204V156
			c0,1.379-1.121,2.5-2.5,2.5H226c-4.143,0-7.5,3.357-7.5,7.5s3.357,7.5,7.5,7.5h115h0.443H343c0.275,0,0.5,0.225,0.5,0.5V186z"/>
	</g>
</g>
<g>
	<g>
		<path d="M262.115,401.737c-1.4-2.027-3.707-3.237-6.171-3.237c-2.464,0-4.771,1.21-6.171,3.237
			c-5.004,7.244-21.329,31.844-21.329,44.263c0,15.163,12.337,27.5,27.5,27.5c15.163,0,27.5-12.337,27.5-27.5
			C283.443,433.581,267.118,408.981,262.115,401.737z M255.943,458.5c-6.893,0-12.5-5.607-12.5-12.5
			c0-4.008,5.739-15.315,12.5-26.271c6.761,10.955,12.5,22.263,12.5,26.271C268.443,452.893,262.836,458.5,255.943,458.5z"/>
	</g>
</g>
<g>
</g>
<g>
</g>
<g>
</g>
<g>
</g>
<g>
</g>
<g>
</g>
<g>
</g>
<g>
</g>
<g>
</g>
<g>
</g>
<g>
</g>
<g>
</g>
<g>
</g>
<g>
</g>
<g>
</g>
</svg>
