<?xml version="1.0" encoding="iso-8859-1"?>
<!-- Generator: Adobe Illustrator 19.0.0, SVG Export Plug-In . SVG Version: 6.00 Build 0)  -->
<svg version="1.1" id="Capa_1" xmlns="http://www.w3.org/2000/svg" xmlns:xlink="http://www.w3.org/1999/xlink" x="0px" y="0px"
	 viewBox="0 0 512.002 512.002" style="enable-background:new 0 0 512.002 512.002;" xml:space="preserve">
<g>
	<g>
		<path d="M256,0c-5.522,0-10,4.477-10,10v0.239c0,5.523,4.478,10,10,10c5.522,0,10-4.477,10-10V10C266,4.477,261.522,0,256,0z"/>
	</g>
</g>
<g>
	<g>
		<path d="M435.805,27.735c-5.522,0-10,4.477-10,10v0.239c0,5.523,4.478,10,10,10c5.523,0,10-4.477,10-10v-0.239
			C445.805,32.212,441.328,27.735,435.805,27.735z"/>
	</g>
</g>
<g>
	<g>
		<path d="M76.194,27.735c-5.522,0-10,4.477-10,10v0.239c0,5.523,4.477,10,10,10c5.522,0,10-4.477,10-10v-0.239
			C86.194,32.212,81.716,27.735,76.194,27.735z"/>
	</g>
</g>
<g>
	<g>
		<path d="M152.391,79.675c0-5.523-4.477-10-10-10c-5.522,0-10,4.477-10,10v28.707c-6.443,3.655-12.284,6.771-17.552,9.579
			c-11.707,6.239-21.212,11.315-28.644,17.882v-68.8c0-5.523-4.478-10-10-10c-5.522,0-10,4.477-10,10v68.8
			c-7.431-6.567-16.937-11.643-28.644-17.882c-5.268-2.807-11.108-5.923-17.551-9.578V79.675c0-5.523-4.477-10-10-10
			c-5.522,0-10,4.477-10,10v34.493c0,21.312,1.474,35.834,5.001,46.811c-3.092,1.786-5,5.086-5,8.659
			c0,21.312,1.474,35.835,5,46.811c-3.092,1.786-5,5.086-5,8.659c0,21.313,1.474,35.834,5.001,46.811
			c-3.092,1.785-5.001,5.085-5.001,8.659c0,21.313,1.474,35.835,5.001,46.811c-3.093,1.786-5.001,5.086-5.001,8.659
			c0,30.417,2.996,47.013,10.687,59.192c8.073,12.786,20.607,19.465,37.955,28.71c5.269,2.808,11.11,5.924,17.554,9.58v40.737
			c0,5.523,4.478,10,10,10c5.522,0,10-4.477,10-10v-40.739c6.442-3.654,12.282-6.771,17.55-9.578
			c17.348-9.245,29.882-15.924,37.956-28.71c7.691-12.179,10.688-28.775,10.688-59.192c0-3.573-1.908-6.873-5.001-8.659
			c3.526-10.977,5.001-25.499,5.001-46.811c0-3.573-1.908-6.873-5.001-8.658c3.526-10.977,5.001-25.499,5.001-46.812
			c0-3.573-1.908-6.873-5-8.659c3.526-10.977,5-25.499,5-46.811c0-3.573-1.908-6.872-5.001-8.658
			c3.526-10.977,5.001-25.499,5.001-46.812V79.675z M58.05,406.3c-28.044-14.945-36.09-19.234-37.708-52.991
			c2.729,1.478,5.327,2.861,7.804,4.181c28.045,14.945,36.09,19.234,37.709,52.992C63.125,409.004,60.527,407.62,58.05,406.3z
			 M58.05,350.831c-28.044-14.946-36.09-19.234-37.708-52.992c2.731,1.477,5.328,2.862,7.805,4.182
			c28.044,14.945,36.09,19.234,37.708,52.992C63.125,353.535,60.527,352.151,58.05,350.831z M58.05,295.36
			c-28.044-14.945-36.09-19.234-37.708-52.991c2.73,1.476,5.327,2.861,7.803,4.18c28.046,14.946,36.091,19.235,37.71,52.993
			C63.125,298.064,60.527,296.68,58.05,295.36z M58.051,239.891c-28.045-14.946-36.091-19.234-37.709-52.992
			c2.731,1.477,5.328,2.862,7.804,4.181c28.045,14.946,36.091,19.234,37.709,52.992C63.125,242.595,60.528,241.211,58.051,239.891z
			 M58.05,184.42c-28.044-14.945-36.09-19.234-37.708-52.991c2.731,1.477,5.327,2.861,7.804,4.181
			c28.045,14.945,36.091,19.234,37.709,52.992C63.125,187.125,60.527,185.74,58.05,184.42z M94.34,239.891
			c-2.477,1.319-5.073,2.704-7.804,4.181c1.618-33.757,9.664-38.045,37.708-52.991c2.477-1.32,5.075-2.705,7.806-4.182
			C130.431,220.657,122.386,224.945,94.34,239.891z M132.05,242.369c-1.618,33.757-9.664,38.045-37.708,52.991
			c-2.477,1.32-5.075,2.704-7.806,4.182c1.619-33.757,9.664-38.046,37.71-52.992C126.723,245.23,129.319,243.846,132.05,242.369z
			 M94.342,406.3c-2.478,1.32-5.075,2.704-7.806,4.182c1.619-33.757,9.664-38.046,37.709-52.992c2.477-1.32,5.074-2.704,7.805-4.181
			C130.432,387.066,122.386,391.354,94.342,406.3z M94.342,350.831c-2.477,1.319-5.075,2.704-7.805,4.181
			c1.618-33.757,9.664-38.046,37.708-52.991c2.478-1.32,5.075-2.704,7.806-4.182C130.433,331.596,122.387,335.885,94.342,350.831z
			 M94.342,184.421c-2.476,1.32-5.074,2.705-7.805,4.182c1.618-33.758,9.664-38.046,37.709-52.992
			c2.477-1.32,5.074-2.705,7.805-4.182C130.433,165.187,122.387,169.475,94.342,184.421z"/>
	</g>
</g>
<g>
	<g>
		<path d="M512.002,79.675c0-5.523-4.478-10-10-10c-5.522,0-10,4.477-10,10v28.707c-6.443,3.655-12.284,6.771-17.552,9.579
			c-11.706,6.238-21.211,11.314-28.642,17.881V67.044c0-5.523-4.478-10-10-10c-5.523,0-10,4.477-10,10v68.8
			c-7.431-6.567-16.937-11.643-28.643-17.882c-5.268-2.808-11.108-5.924-17.552-9.579V79.675c0-5.523-4.477-10-10-10
			c-5.522,0-10,4.477-10,10v34.493c0,21.313,1.474,35.834,5,46.812c-3.093,1.786-5,5.085-5,8.658c0,21.313,1.474,35.835,5,46.811
			c-3.092,1.786-5,5.086-5,8.659c0,21.313,1.474,35.835,5,46.812c-3.092,1.786-5,5.086-5,8.658c0,21.313,1.474,35.835,5,46.811
			c-3.093,1.786-5,5.086-5,8.659c0,30.417,2.996,47.013,10.686,59.192c8.074,12.786,20.608,19.466,37.956,28.711
			c5.269,2.808,11.109,5.924,17.553,9.579v40.737c0,5.523,4.478,10,10,10c5.523,0,10-4.477,10-10v-40.738
			c6.443-3.654,12.283-6.771,17.551-9.578c17.348-9.245,29.882-15.925,37.956-28.711c7.69-12.179,10.687-28.775,10.687-59.192
			c0-3.573-1.908-6.873-5.001-8.659c3.526-10.977,5.001-25.499,5.001-46.811c0-3.572-1.908-6.872-5-8.658
			c3.526-10.977,5-25.499,5-46.812c0-3.573-1.908-6.873-5-8.659c3.526-10.977,5-25.499,5-46.811c0-3.573-1.908-6.872-5-8.658
			c3.526-10.977,5-25.499,5-46.813V79.675z M387.759,135.611c28.044,14.945,36.09,19.234,37.708,52.991
			c-2.73-1.477-5.327-2.861-7.804-4.181c-28.045-14.945-36.091-19.234-37.709-52.992
			C382.685,132.906,385.283,134.292,387.759,135.611z M387.759,191.081c28.044,14.946,36.09,19.234,37.708,52.992
			c-2.729-1.478-5.327-2.861-7.804-4.181c-28.045-14.945-36.09-19.234-37.709-52.992
			C382.685,188.376,385.283,189.761,387.759,191.081z M387.758,246.55c28.045,14.946,36.09,19.235,37.709,52.992
			c-2.73-1.477-5.328-2.862-7.805-4.182c-28.044-14.945-36.09-19.234-37.708-52.992C382.685,243.846,385.282,245.23,387.758,246.55z
			 M387.759,302.021c28.044,14.945,36.09,19.234,37.708,52.991c-2.73-1.477-5.327-2.861-7.804-4.181
			c-28.045-14.946-36.091-19.234-37.709-52.992C382.685,299.316,385.283,300.701,387.759,302.021z M417.663,406.3
			c-28.044-14.945-36.09-19.234-37.708-52.991c2.73,1.477,5.327,2.861,7.804,4.181c28.045,14.946,36.091,19.234,37.709,52.992
			C422.737,409.005,420.139,407.62,417.663,406.3z M453.954,406.3c-2.477,1.32-5.074,2.705-7.805,4.182
			c1.618-33.758,9.664-38.046,37.709-52.992c2.477-1.319,5.073-2.704,7.804-4.181C490.043,387.066,481.998,391.355,453.954,406.3z
			 M453.953,350.831c-2.477,1.32-5.074,2.704-7.804,4.181c1.618-33.757,9.664-38.046,37.708-52.991
			c2.477-1.32,5.074-2.704,7.805-4.182C490.044,331.597,481.998,335.885,453.953,350.831z M453.954,295.36
			c-2.477,1.32-5.074,2.705-7.805,4.182c1.619-33.757,9.664-38.046,37.709-52.992c2.477-1.32,5.073-2.704,7.804-4.181
			C490.043,276.126,481.998,280.415,453.954,295.36z M453.953,239.891c-2.477,1.32-5.074,2.704-7.804,4.181
			c1.618-33.757,9.664-38.046,37.708-52.992c2.477-1.32,5.074-2.704,7.805-4.182C490.042,220.657,481.998,224.946,453.953,239.891z
			 M453.954,184.42c-2.477,1.32-5.074,2.705-7.805,4.182c1.618-33.757,9.664-38.046,37.708-52.992
			c2.477-1.32,5.074-2.704,7.805-4.182C490.044,165.186,481.998,169.474,453.954,184.42z"/>
	</g>
</g>
<g>
	<g>
		<path d="M332.199,51.94c-0.001-5.522-4.479-10-10.001-10c-5.522,0-10,4.477-10,10v28.707c-6.443,3.655-12.284,6.771-17.551,9.579
			c-11.706,6.239-21.212,11.315-28.643,17.883v-68.8c0-5.523-4.478-10-10-10c-5.522,0-10,4.477-10,10v68.8
			c-7.431-6.567-16.937-11.644-28.644-17.883c-5.267-2.808-11.107-5.924-17.551-9.579V51.94c0-5.523-4.477-10-10-10
			c-5.522,0-10,4.477-10,10v34.493c0,21.313,1.474,35.834,5,46.811c-3.092,1.786-5,5.085-5,8.659c0,21.313,1.474,35.835,5,46.811
			c-3.092,1.786-5,5.086-5,8.659c0,21.313,1.474,35.835,5,46.811c-3.093,1.786-5,5.086-5,8.658c0,21.313,1.474,35.835,5.001,46.812
			c-3.093,1.786-5.001,5.085-5.001,8.658c0,21.313,1.474,35.834,5,46.811c-3.092,1.786-5,5.085-5,8.659
			c0,30.417,2.996,47.013,10.688,59.192c8.074,12.786,20.608,19.466,37.956,28.711c5.268,2.808,11.109,5.924,17.552,9.578v40.738
			c0,5.523,4.478,10,10,10c5.522,0,10-4.477,10-10v-40.739c6.442-3.654,12.282-6.77,17.55-9.577
			c17.348-9.245,29.882-15.925,37.956-28.711c7.691-12.179,10.688-28.775,10.688-59.192c0-3.573-1.908-6.873-5-8.659
			c3.526-10.977,5-25.499,5-46.811c0-3.573-1.908-6.873-5-8.658c3.526-10.977,5-25.499,5-46.812c0-3.572-1.907-6.872-5-8.658
			c3.526-10.977,5-25.499,5-46.811c0-3.573-1.908-6.873-5-8.659c3.526-10.977,5-25.499,5-46.811c0-3.573-1.908-6.873-5-8.659
			c3.526-10.977,5-25.498,5-46.811V51.94z M237.859,434.036c-28.045-14.945-36.091-19.234-37.709-52.992
			c2.73,1.477,5.327,2.861,7.804,4.181c28.045,14.946,36.091,19.234,37.709,52.992C242.932,436.74,240.335,435.355,237.859,434.036z
			 M237.859,378.566c-28.045-14.946-36.09-19.235-37.709-52.993c2.73,1.478,5.328,2.862,7.805,4.182
			c28.044,14.946,36.09,19.234,37.708,52.992C242.933,381.271,240.336,379.886,237.859,378.566z M237.859,323.096
			c-28.045-14.945-36.091-19.234-37.709-52.992c2.73,1.477,5.328,2.861,7.805,4.181c28.044,14.946,36.09,19.234,37.708,52.992
			C242.933,325.8,240.336,324.417,237.859,323.096z M237.859,267.626c-28.045-14.945-36.091-19.234-37.709-52.992
			c2.73,1.477,5.328,2.862,7.805,4.182c28.044,14.945,36.09,19.234,37.708,52.991C242.933,270.331,240.336,268.946,237.859,267.626z
			 M237.859,212.156c-28.045-14.946-36.09-19.235-37.709-52.993c2.73,1.478,5.327,2.862,7.804,4.182
			c28.045,14.946,36.091,19.235,37.709,52.992C242.933,214.86,240.336,213.477,237.859,212.156z M237.858,156.686
			c-28.044-14.945-36.09-19.234-37.708-52.992c2.73,1.477,5.327,2.862,7.804,4.181c28.045,14.946,36.091,19.234,37.709,52.992
			C242.933,159.391,240.335,158.006,237.858,156.686z M274.148,434.036c-2.477,1.32-5.073,2.704-7.804,4.181
			c1.618-33.757,9.664-38.046,37.709-52.992c2.477-1.32,5.073-2.704,7.804-4.181C310.239,414.802,302.193,419.09,274.148,434.036z
			 M274.148,378.566c-2.477,1.32-5.073,2.704-7.804,4.181c1.618-33.757,9.664-38.046,37.708-52.992
			c2.477-1.32,5.074-2.704,7.805-4.182C310.238,359.331,302.193,363.62,274.148,378.566z M274.148,323.096
			c-2.477,1.32-5.073,2.704-7.804,4.181c1.618-33.757,9.664-38.046,37.708-52.992c2.477-1.32,5.074-2.704,7.805-4.182
			C310.239,303.862,302.193,308.15,274.148,323.096z M274.148,267.626c-2.477,1.32-5.073,2.704-7.804,4.181
			c1.618-33.757,9.664-38.046,37.708-52.991c2.477-1.32,5.074-2.705,7.805-4.182C310.239,248.392,302.193,252.681,274.148,267.626z
			 M274.148,212.157c-2.477,1.32-5.073,2.704-7.804,4.181c1.618-33.757,9.664-38.046,37.709-52.992
			c2.477-1.32,5.073-2.704,7.804-4.181C310.238,192.922,302.193,197.211,274.148,212.157z M274.149,156.685
			c-2.477,1.32-5.074,2.704-7.805,4.181c1.618-33.756,9.664-38.045,37.709-52.991c2.477-1.32,5.073-2.704,7.804-4.182
			C310.239,137.451,302.193,141.74,274.149,156.685z"/>
	</g>
</g>
<g>
</g>
<g>
</g>
<g>
</g>
<g>
</g>
<g>
</g>
<g>
</g>
<g>
</g>
<g>
</g>
<g>
</g>
<g>
</g>
<g>
</g>
<g>
</g>
<g>
</g>
<g>
</g>
<g>
</g>
</svg>
